<svg xmlns="http://www.w3.org/2000/svg" version="1.1" xmlns:xlink="http://www.w3.org/1999/xlink" xmlns:svgjs="http://svgjs.com/svgjs" width="512" height="512" x="0" y="0" viewBox="0 0 32 32" style="enable-background:new 0 0 512 512" xml:space="preserve" class=""><g><path fill="#ffff55" d="M16 2A13.992 13.992 0 0 0 3.6 22.485l-1.57 6.273A1 1 0 0 0 3 30a.983.983 0 0 0 .243-.03l6.272-1.57A14 14 0 1 0 16 2z" data-original="#ffff55" class=""></path><g fill="#ffa350"><path d="M22 10H10a1 1 0 0 0 0 2h12a1 1 0 0 0 0-2zM22 15H10a1 1 0 0 0 0 2h12a1 1 0 0 0 0-2zM16 20h-6a1 1 0 0 0 0 2h6a1 1 0 0 0 0-2z" fill="#ff8c92" data-original="#ffa350" class="" opacity="1"></path></g></g></svg>